# xmcd
#
# Track frame offsets:
#	150
#	20419
#	43004
#	60194
#	73637
#	97132
#	115419
#	135412
#	154404
#
# Disc length: 2430 seconds
#
# Revision: 0
# Processed by: cddbd v1.5.2PL0 Copyright (c) Steve Scherf et al.
# Submitted via: EasyCDDAExtractor 12.0.7.1
#
DISCID=77097c09
DTITLE=Мираж - Звезды нас ждут
DYEAR=1987
DGENRE=Pop
TTITLE0=Солнечное лето
TTITLE1=Звезды нас ждут
TTITLE2=Безумный мир
TTITLE3=Я не хочу
TTITLE4=Около полуночи
TTITLE5=Видео
TTITLE6=Эта ночь
TTITLE7=Электричество
TTITLE8=Волшебный мир
EXTD=YEAR: 1987\n
EXTT0=
EXTT1=
EXTT2=
EXTT3=
EXTT4=
EXTT5=
EXTT6=
EXTT7=
EXTT8=
PLAYORDER=
